HIERARCHY
ROOT root
{
	OFFSET 0.000000 0.000000 0.000000
	CHANNELS 6 Xposition Yposition Zposition Zrotation Yrotation Xrotation
	JOINT lhip
	{
		OFFSET 0.058581 -0.082280 -0.017664
		CHANNELS 3 Zrotation Yrotation Xrotation
		JOINT lknee
		{
			OFFSET 0.043451 -0.386469 0.008037
			CHANNELS 3 Zrotation Yrotation Xrotation
			JOINT lankle
			{
				OFFSET -0.014790 -0.426874 -0.037428
				CHANNELS 3 Zrotation Yrotation Xrotation
				JOINT ltoe
				{
					OFFSET 0.041054 -0.060286 0.122042
					CHANNELS 3 Zrotation Yrotation Xrotation
					End Site
					{
						OFFSET 0.000000 0.000000 0.000000
					}
				}
			}
		}
	}
	JOINT rhip
	{
		OFFSET -0.060310 -0.090513 -0.013543
		CHANNELS 3 Zrotation Yrotation Xrotation
		JOINT rknee
		{
			OFFSET -0.043257 -0.383688 -0.004843
			CHANNELS 3 Zrotation Yrotation Xrotation
			JOINT rankle
			{
				OFFSET 0.019056 -0.420046 -0.034562
				CHANNELS 3 Zrotation Yrotation Xrotation
				JOINT rtoe
				{
					OFFSET -0.034840 -0.062106 0.130323
					CHANNELS 3 Zrotation Yrotation Xrotation
					End Site
					{
						OFFSET 0.000000 0.000000 0.000000
					}
				}
			}
		}
	}
	JOINT lowerback
	{
		OFFSET 0.004439 0.124404 -0.038385
		CHANNELS 3 Zrotation Yrotation Xrotation
		JOINT upperback
		{
			OFFSET 0.004488 0.137956 0.026820
			CHANNELS 3 Zrotation Yrotation Xrotation
			JOINT chest
			{
				OFFSET -0.002265 0.056032 0.002855
				CHANNELS 3 Zrotation Yrotation Xrotation
				JOINT lowerneck
				{
					OFFSET -0.013390 0.211636 -0.033468
					CHANNELS 3 Zrotation Yrotation Xrotation
					JOINT upperneck
					{
						OFFSET 0.010113 0.088937 0.050410
						CHANNELS 3 Zrotation Yrotation Xrotation
						End Site
						{
							OFFSET 0.000000 0.000000 0.000000
						}
					}
				}
				JOINT lclavicle
				{
					OFFSET 0.071702 0.114000 -0.018898
					CHANNELS 3 Zrotation Yrotation Xrotation
					JOINT lshoulder
					{
						OFFSET 0.122921 0.045205 -0.019046
						CHANNELS 3 Zrotation Yrotation Xrotation
						JOINT lelbow
						{
							OFFSET 0.255332 -0.015649 -0.022946
							CHANNELS 3 Zrotation Yrotation Xrotation
							JOINT lwrist
							{
								OFFSET 0.265709 0.012698 -0.007375
								CHANNELS 3 Zrotation Yrotation Xrotation
								End Site
								{
									OFFSET 0.000000 0.000000 0.000000
								}
							}
						}
					}
				}
				JOINT rclavicle
				{
					OFFSET -0.082954 0.112472 -0.023707
					CHANNELS 3 Zrotation Yrotation Xrotation
					JOINT rshoulder
					{
						OFFSET -0.113228 0.046853 -0.008472
						CHANNELS 3 Zrotation Yrotation Xrotation
						JOINT relbow
						{
							OFFSET -0.260127 -0.014369 -0.031269
							CHANNELS 3 Zrotation Yrotation Xrotation
							JOINT rwrist
							{
								OFFSET -0.269108 0.006794 -0.006027
								CHANNELS 3 Zrotation Yrotation Xrotation
								End Site
								{
									OFFSET 0.000000 0.000000 0.000000
								}
							}
						}
					}
				}
			}
		}
	}
}
MOTION
Frames: 14
Frame Time: 0.033333
-0.586783 0.658039 0.992964 67.694973 1.956317 88.715120 6.583709 7.609814 4.855969 -1.987432 3.449983 -3.014087 2.026944 11.791717 -4.516614 0.000000 -0.000000 0.000000 -1.709092 -4.203999 0.134481 0.366610 -2.140957 -0.112108 3.378466 -3.459502 -4.531049 0.000000 -0.000000 0.000000 1.354324 1.790503 7.543931 1.320644 -2.940241 3.007105 1.734569 -0.119039 -8.691248 -4.689905 12.164378 -3.762150 2.340303 12.711639 -3.255894 -25.039118 -11.342653 2.383524 -61.023529 -2.504680 14.454491 8.082179 -19.362577 -12.493923 2.015247 -9.774139 -5.771504 23.588399 11.236818 8.515895 57.499831 -1.897557 13.081015 -12.444213 22.799988 -9.421820 7.802198 12.672337 -5.914603 
-0.587015 0.657570 0.992997 67.883554 1.940529 88.777161 6.626437 7.497596 4.667698 -2.013162 3.456665 -2.867586 1.915038 11.910881 -4.789130 0.000000 -0.000000 0.000000 -1.636023 -4.079896 0.126804 0.277166 -2.110947 -0.129020 3.507271 -3.777470 -4.604874 0.000000 -0.000000 0.000000 1.221598 1.762790 7.644935 1.444149 -3.059705 2.752479 1.827123 -0.141973 -8.420629 -4.665108 11.948905 -4.368404 2.290592 12.803507 -3.013241 -24.935126 -11.303066 2.275863 -60.983821 -2.554361 14.317718 7.957241 -19.908464 -12.412051 1.945235 -9.758808 -6.168845 23.695317 11.142403 8.367603 57.237630 -1.799620 13.021711 -12.641706 23.287373 -9.030359 8.810898 13.226162 -5.195862 
-0.586767 0.657589 0.993074 68.013002 1.891584 88.815018 6.600344 7.443971 4.569091 -1.979015 3.394538 -2.664908 1.803932 11.802187 -4.954326 0.000000 -0.000000 0.000000 -1.697638 -4.139867 0.071361 0.302769 -2.226797 0.018626 3.520676 -3.872867 -4.570343 0.000000 -0.000000 0.000000 1.232810 1.788159 7.663396 1.499978 -3.116471 2.701169 1.810682 -0.251680 -8.344113 -4.721171 12.011928 -4.470548 2.236478 12.824167 -3.195922 -24.830395 -11.328744 2.175858 -60.991970 -2.458838 14.098453 7.912990 -20.317228 -12.592781 1.465437 -9.817762 -6.217824 23.810821 11.119408 8.241261 56.832516 -1.893770 13.173964 -12.588032 24.082102 -8.152761 10.159362 13.587234 -3.757743 
-0.586552 0.657746 0.993282 68.148189 1.851229 88.863288 6.517979 7.400093 4.342416 -1.921905 3.498175 -2.320101 1.614073 11.867593 -5.254269 0.000000 -0.000000 0.000000 -1.746653 -4.154935 0.018174 0.262232 -2.312504 0.119343 3.558569 -3.879854 -4.569200 0.000000 -0.000000 0.000000 1.348891 1.723493 7.707368 1.564295 -3.280837 2.693327 1.732308 -0.305409 -8.428416 -4.812597 12.029245 -4.546877 2.219207 13.009679 -3.131722 -24.824398 -11.213450 1.986556 -60.935190 -2.236257 13.864431 7.870634 -20.501387 -12.603362 0.291612 -10.216784 -5.919894 23.966777 11.223765 7.876224 56.046753 -2.188337 13.655034 -12.172494 24.790571 -6.195648 12.507466 14.515182 -1.244026 
-0.586629 0.657798 0.993327 68.165380 1.847607 88.899969 6.480867 7.363200 4.217050 -1.889558 3.578037 -2.155907 1.641572 11.891399 -5.291874 0.000000 -0.000000 0.000000 -1.745003 -4.139891 -0.033734 0.254362 -2.343204 0.162205 3.510311 -3.884369 -4.571401 0.000000 -0.000000 0.000000 1.368876 1.718379 7.676701 1.587718 -3.333231 2.753980 1.706640 -0.282014 -8.481016 -4.819186 12.071837 -4.602215 2.223677 13.019747 -3.063868 -24.782338 -11.199403 1.895693 -60.995208 -2.176321 13.812871 7.852242 -20.429818 -12.582545 -0.123714 -10.371810 -5.684415 24.027910 11.260988 7.912193 55.839034 -2.227123 13.772122 -12.068148 25.108768 -5.608091 13.150669 14.784883 -0.339136 
-0.586518 0.657872 0.993431 68.136900 1.806142 88.887251 6.389465 7.264123 4.140633 -1.782880 3.637898 -1.871514 1.672656 11.847490 -5.348376 0.000000 -0.000000 0.000000 -1.782449 -4.100309 0.019969 0.183745 -2.301194 0.112610 3.497568 -3.851859 -4.575569 0.000000 -0.000000 0.000000 1.380901 1.843897 7.632095 1.628684 -3.346801 2.966829 1.661300 -0.303835 -8.591030 -4.855880 12.185676 -4.595312 2.241604 12.952517 -3.089384 -24.762960 -11.279018 1.758014 -61.097364 -2.099851 13.617414 7.858424 -20.199645 -12.654056 -1.037894 -10.598755 -5.105329 24.043922 11.248873 7.937292 55.581323 -2.330768 13.816494 -12.041209 25.717209 -4.493195 14.509063 15.042459 1.720023 
-0.586498 0.657818 0.993582 68.077803 1.796565 88.839263 6.423704 7.229822 4.092878 -1.823725 3.836956 -1.609854 1.524795 11.926083 -5.564851 0.000000 -0.000000 0.000000 -1.775082 -4.050012 0.113589 0.163813 -2.305972 0.072961 3.452370 -3.849263 -4.559721 0.000000 -0.000000 0.000000 1.397668 1.949824 7.631401 1.638088 -3.276848 3.071038 1.655579 -0.342778 -8.601050 -4.934525 12.293789 -4.559274 2.260590 12.859716 -3.073523 -24.762436 -11.354373 1.711691 -61.191534 -2.029582 13.325996 7.911949 -19.966362 -12.634121 -1.995801 -10.880056 -4.635653 24.065588 11.249511 8.016606 55.385519 -2.444214 13.808582 -12.099039 26.297973 -3.336013 15.873098 15.224611 3.661715 
-0.586551 0.657774 0.993596 67.975251 1.790333 88.781551 6.458644 7.193397 4.071384 -1.864131 3.834853 -1.358947 1.608059 11.964983 -5.584983 0.000000 -0.000000 0.000000 -1.784429 -4.050606 0.144108 0.222682 -2.332259 0.155545 3.369753 -3.919179 -4.460003 0.000000 -0.000000 0.000000 1.485510 1.949590 7.695070 1.562876 -3.173074 3.095847 1.606629 -0.318592 -8.632204 -4.999647 12.281679 -4.426518 2.297516 12.920798 -3.038429 -24.750974 -11.329115 1.764252 -61.228617 -1.999917 13.306062 7.863499 -19.734871 -12.516278 -1.981342 -10.895225 -4.666521 23.840598 11.313591 8.006277 55.675919 -2.583075 13.938426 -11.907807 26.299212 -2.775418 15.573045 14.987876 3.713177 
-0.585945 0.657932 0.993663 67.865304 1.718659 88.686049 6.322169 7.194619 4.262416 -1.774523 3.863236 -1.413024 1.615212 12.016954 -5.564196 0.000000 -0.000000 0.000000 -1.948068 -4.118386 0.270875 0.292997 -2.302218 0.153789 3.421998 -3.777341 -4.430938 0.000000 -0.000000 0.000000 1.655980 1.983818 7.610463 1.451731 -3.140353 3.362029 1.456549 -0.310235 -8.740403 -5.158176 12.371620 -4.164687 2.318025 12.952622 -3.109948 -24.819915 -11.278099 1.770116 -61.197256 -1.923021 13.207623 7.833104 -19.430109 -12.461615 -2.264198 -11.032264 -4.437969 23.826109 11.381898 8.137956 55.852246 -2.621694 13.932797 -11.833023 26.288319 -2.651635 15.759702 15.207064 3.982844 
-0.585913 0.657800 0.993785 67.769519 1.705746 88.615189 6.315462 7.205123 4.369828 -1.792120 3.911914 -1.434726 1.570009 12.126381 -5.640787 0.000000 -0.000000 0.000000 -1.968283 -4.141070 0.323962 0.286610 -2.212288 0.202046 3.453902 -3.704165 -4.448250 0.000000 -0.000000 0.000000 1.758223 1.968344 7.658389 1.375646 -3.098015 3.354835 1.393961 -0.275128 -8.748171 -5.245095 12.475379 -3.973691 2.309284 13.148320 -2.959025 -24.870726 -11.162924 1.839449 -61.196805 -1.842018 13.202040 7.752984 -19.308636 -12.328076 -1.868056 -10.944315 -4.544289 23.826417 11.328916 8.198737 55.987509 -2.510550 13.880761 -11.847506 25.808959 -2.757607 15.092951 15.123298 3.686052 
-0.586177 0.657504 0.993818 67.693300 1.734240 88.629946 6.380359 7.231997 4.399810 -1.795511 3.881740 -1.497743 1.613183 12.098325 -5.583011 0.000000 -0.000000 0.000000 -1.923529 -4.175145 0.180302 0.268468 -2.146573 0.387731 3.510789 -3.546100 -4.570453 0.000000 -0.000000 0.000000 1.814579 1.955108 7.649018 1.376710 -3.131403 3.341176 1.343437 -0.232080 -8.773971 -5.314564 12.656136 -3.723892 2.284540 13.384160 -2.892743 -24.866259 -11.013429 1.862593 -61.274039 -1.624760 13.251091 7.721402 -19.386410 -12.342465 -1.619502 -10.897618 -4.569616 23.857525 11.285320 8.230405 56.054162 -2.511824 13.886806 -11.870184 25.707983 -2.895547 15.125716 15.115164 3.603386 
-0.586460 0.657265 0.993746 67.684767 1.739949 88.650029 6.413414 7.237921 4.463525 -1.807455 3.839161 -1.655070 1.621407 12.026800 -5.537843 0.000000 -0.000000 0.000000 -1.881849 -4.164100 0.076406 0.216820 -2.179518 0.519870 3.514628 -3.462085 -4.645337 0.000000 -0.000000 0.000000 1.791989 1.908311 7.638970 1.396522 -3.136967 3.311930 1.354663 -0.252877 -8.736905 -5.390162 12.828901 -3.507803 2.191142 13.550981 -2.820998 -24.844619 -10.828589 1.929003 -61.427248 -1.471192 13.267434 7.842997 -19.528335 -12.164608 -1.741748 -10.987092 -4.457417 23.849424 11.161352 8.229561 56.036739 -2.480918 13.873678 -11.941550 25.708002 -2.943219 15.555512 15.145907 3.606003 
-0.586659 0.657139 0.993701 67.726436 1.735926 88.603553 6.423703 7.272444 4.572832 -1.800585 3.817941 -1.795666 1.643382 11.998513 -5.437354 0.000000 -0.000000 0.000000 -1.882111 -4.169300 0.112653 0.199850 -2.188137 0.547378 3.514007 -3.433861 -4.714349 0.000000 -0.000000 0.000000 1.759946 1.876451 7.675629 1.394111 -3.114038 3.321605 1.366486 -0.317365 -8.652225 -5.451356 12.918605 -3.373338 2.157635 13.643451 -2.722047 -24.857307 -10.627678 1.936901 -61.376362 -1.380668 13.284518 7.675187 -19.774024 -11.858948 -1.726665 -11.023108 -4.441863 23.856873 10.940538 8.073549 55.982363 -2.453310 13.799619 -12.008120 25.635651 -2.985640 15.641702 15.121712 3.583874 
-0.587086 0.657052 0.993714 67.804067 1.781083 88.606644 6.507135 7.287764 4.557552 -1.834789 3.793437 -1.842175 1.608504 11.947782 -5.428501 0.000000 -0.000000 0.000000 -1.869977 -4.181991 0.076177 0.303840 -2.219678 0.574740 3.518544 -3.456584 -4.737989 0.000000 -0.000000 0.000000 1.738407 1.860037 7.689223 1.418706 -3.079215 3.336266 1.406106 -0.423111 -8.608119 -5.459784 12.942467 -3.250646 2.095704 13.793815 -2.626640 -24.927760 -10.531246 1.980311 -61.300525 -1.307903 13.334370 7.529757 -19.912805 -11.629111 -1.295904 -10.904382 -4.529633 23.860192 10.739927 8.039946 55.819609 -2.512191 13.744267 -12.088674 25.739112 -3.222477 14.972954 15.054275 3.336801 
